<svg xmlns="http://www.w3.org/2000/svg" width="1045.714" height="200" viewBox="0 0 1045.714 200"><defs><style>.a{fill:#fff;}</style></defs><g transform="translate(-78.916 -86.018)"><path class="a" d="M170.362,216.125,195.6,190.858a6.525,6.525,0,0,0,2.039-4.84,7.633,7.633,0,0,0-1.773-4.582l-25.5-25.525,58.282-58.339c2.43-2.09,3.824-5.125,2.442-8.407a5.38,5.38,0,0,0-5.141-3.147H86.327c-2.767,0-5.309,0-6.791,3.164-2.062,4.405,1.688,8.341,1.688,8.341l58.6,58.387L114.531,181.23a7.317,7.317,0,0,0-1.982,4.788c-.143,1.967,2.073,4.874,2.073,4.874l25.2,25.227L81.54,274.463a6.717,6.717,0,0,0-1.485,7.344c1.793,4.222,7.174,4.211,7.174,4.211H223.858c2.767,0,5.475-1.564,6.24-4.139,1.594-5.348-2.028-7.99-2.028-7.99ZM122.01,107.578h66.164L155.1,140.692Zm17.675,78.44L155.1,170.6l15.407,15.422L155.1,201.44ZM122.01,264.453l33.082-33.114,33.082,33.114Z" transform="translate(0 0)"/><g transform="translate(289.91 137.787)"><path class="a" d="M191.338,130.493a26.742,26.742,0,0,1,13.228-3.233c8.031,0,14.579,3.062,20.031,9.359l1.931,2.233,17.272-15.96-1.739-2.087a44.57,44.57,0,0,0-16.624-12.4,57.5,57.5,0,0,0-47.75,1.932,46.767,46.767,0,0,0-18.24,17.326,50.35,50.35,0,0,0,0,50.012A46.741,46.741,0,0,0,177.686,195a53.709,53.709,0,0,0,25.748,6.209,54.97,54.97,0,0,0,21.933-4.271,43.875,43.875,0,0,0,16.707-12.549l1.708-2.084-17.269-15.957-1.928,2.256c-5.446,6.375-11.994,9.473-20.019,9.473a26.743,26.743,0,0,1-13.228-3.233,22.542,22.542,0,0,1-8.922-8.93,28.745,28.745,0,0,1,0-26.488A22.541,22.541,0,0,1,191.338,130.493Z" transform="translate(-152.798 -104.128)"/><path class="a" d="M266.112,110.4a57.405,57.405,0,0,0-52.188,0,47.019,47.019,0,0,0-18.369,17.389,49.874,49.874,0,0,0,0,49.757,46.975,46.975,0,0,0,18.369,17.389,57.406,57.406,0,0,0,52.188,0,47.928,47.928,0,0,0,0-84.529Zm-13.359,64.45a26.67,26.67,0,0,1-25.414,0,22.747,22.747,0,0,1-8.813-8.942,28.746,28.746,0,0,1,0-26.488,22.754,22.754,0,0,1,8.816-8.942,26.665,26.665,0,0,1,25.411,0,23.081,23.081,0,0,1,8.816,8.942,28.765,28.765,0,0,1,0,26.488A23.062,23.062,0,0,1,252.752,174.853Z" transform="translate(-85.786 -104.128)"/><path class="a" d="M293.284,153.143l-39.662-48.485h-21.1v94.049H258.4V150.2l39.791,48.5h20.973V104.658H293.284Z" transform="translate(-4.846 -103.143)"/><path class="a" d="M333.366,153.143,293.7,104.658H272.6v94.049h25.882V150.2l39.792,48.5H359.25V104.658H333.366Z" transform="translate(69.54 -103.143)"/><path class="a" d="M361.2,163.362l-24.986-58.7h-28.29l40.539,94.049h23.924l40.667-94.049h-26.52Z" transform="translate(135.095 -103.143)"/><path class="a" d="M375.2,161.86H416.17V140.243H375.2V126.78h46.39V104.658h-72.4v94.049h74.04V176.585H375.2Z" transform="translate(211.676 -103.143)"/><path class="a" d="M460.255,158.123a32.946,32.946,0,0,0,5.2-18.555,32.071,32.071,0,0,0-19.643-30.744,52.054,52.054,0,0,0-21.539-4.165H383.225v94.048h26.137V174.1h14.427l17.018,24.6h28.909L448.7,168.559A31.983,31.983,0,0,0,460.255,158.123Zm-50.894-31.09h13.785c5.417,0,9.513,1.115,12.171,3.316,2.524,2.1,3.755,5.117,3.755,9.219,0,4.031-1.237,7.029-3.776,9.171-2.65,2.235-6.739,3.367-12.151,3.367H409.362Z" transform="translate(274.837 -103.143)"/><path class="a" d="M416.156,104.658v22.373h28.238v71.676h26.134V127.031h28.24V104.658Z" transform="translate(335.952 -103.143)"/></g></g></svg>